<?xml version="1.0" encoding="iso-8859-1"?>
<!-- Generator: Adobe Illustrator 17.0.0, SVG Export Plug-In . SVG Version: 6.00 Build 0)  -->
<!DOCTYPE svg PUBLIC "-//W3C//DTD SVG 1.1//EN" "http://www.w3.org/Graphics/SVG/1.1/DTD/svg11.dtd">
<svg version="1.1" id="&#x56FE;&#x5C42;_1" xmlns="http://www.w3.org/2000/svg" xmlns:xlink="http://www.w3.org/1999/xlink" x="0px"
	 y="0px" width="50px" height="50px" viewBox="0 0 50 50" style="enable-background:new 0 0 50 50;" xml:space="preserve">
<path style="fill-rule:evenodd;clip-rule:evenodd;fill:#666666;" d="M3,0c0.667,0,1.333,0,2,0c0,0.667,0,1.333,0,2
	C4.333,2,3.667,2,3,2C3,1.333,3,0.667,3,0z"/>
<path style="fill-rule:evenodd;clip-rule:evenodd;fill:#666666;" d="M6,0c0.667,0,1.333,0,2,0c0,0.667,0,1.333,0,2
	C7.333,2,6.667,2,6,2C6,1.333,6,0.667,6,0z"/>
<path style="fill-rule:evenodd;clip-rule:evenodd;fill:#666666;" d="M9,0c0.667,0,1.333,0,2,0c0,0.667,0,1.333,0,2
	c-0.667,0-1.333,0-2,0C9,1.333,9,0.667,9,0z"/>
<path style="fill-rule:evenodd;clip-rule:evenodd;fill:#666666;" d="M12,0c0.667,0,1.333,0,2,0c0,0.667,0,1.333,0,2
	c-0.667,0-1.333,0-2,0C12,1.333,12,0.667,12,0z"/>
<path style="fill-rule:evenodd;clip-rule:evenodd;fill:#666666;" d="M15,0c0.667,0,1.333,0,2,0c0,0.667,0,1.333,0,2
	c-0.667,0-1.333,0-2,0C15,1.333,15,0.667,15,0z"/>
<path style="fill-rule:evenodd;clip-rule:evenodd;fill:#666666;" d="M18,0c0.667,0,1.333,0,2,0c0,0.667,0,1.333,0,2
	c-0.667,0-1.333,0-2,0C18,1.333,18,0.667,18,0z"/>
<path style="fill-rule:evenodd;clip-rule:evenodd;fill:#666666;" d="M21,0c0.667,0,1.333,0,2,0c0,0.667,0,1.333,0,2
	c-0.667,0-1.333,0-2,0C21,1.333,21,0.667,21,0z"/>
<path style="fill-rule:evenodd;clip-rule:evenodd;fill:#666666;" d="M24,0c0.667,0,1.333,0,2,0c0,0.667,0,1.333,0,2
	c-0.667,0-1.333,0-2,0C24,1.333,24,0.667,24,0z"/>
<path style="fill-rule:evenodd;clip-rule:evenodd;fill:#666666;" d="M27,0c0.667,0,1.333,0,2,0c0,0.667,0,1.333,0,2
	c-0.667,0-1.333,0-2,0C27,1.333,27,0.667,27,0z"/>
<path style="fill-rule:evenodd;clip-rule:evenodd;fill:#666666;" d="M30,0c0.667,0,1.333,0,2,0c0,0.667,0,1.333,0,2
	c-0.667,0-1.333,0-2,0C30,1.333,30,0.667,30,0z"/>
<path style="fill-rule:evenodd;clip-rule:evenodd;fill:#666666;" d="M33,0c0.667,0,1.333,0,2,0c0,0.667,0,1.333,0,2
	c-0.667,0-1.333,0-2,0C33,1.333,33,0.667,33,0z"/>
<path style="fill-rule:evenodd;clip-rule:evenodd;fill:#666666;" d="M36,0c0.667,0,1.333,0,2,0c0,0.667,0,1.333,0,2
	c-0.667,0-1.333,0-2,0C36,1.333,36,0.667,36,0z"/>
<path style="fill-rule:evenodd;clip-rule:evenodd;fill:#666666;" d="M39,0c0.667,0,1.333,0,2,0c0,0.667,0,1.333,0,2
	c-0.667,0-1.333,0-2,0C39,1.333,39,0.667,39,0z"/>
<path style="fill-rule:evenodd;clip-rule:evenodd;fill:#666666;" d="M42,0c0.667,0,1.333,0,2,0c0,0.667,0,1.333,0,2
	c-0.667,0-1.333,0-2,0C42,1.333,42,0.667,42,0z"/>
<path style="fill-rule:evenodd;clip-rule:evenodd;fill:#666666;" d="M45,0c0.667,0,1.333,0,2,0c0,0.667,0,1.333,0,2
	c-0.667,0-1.333,0-2,0C45,1.333,45,0.667,45,0z"/>
<path style="fill-rule:evenodd;clip-rule:evenodd;fill:#666666;" d="M0,3c0.667,0,1.333,0,2,0c0,0.667,0,1.333,0,2
	C1.333,5,0.667,5,0,5C0,4.333,0,3.667,0,3z"/>
<path style="fill-rule:evenodd;clip-rule:evenodd;fill:#666666;" d="M3,3c0.667,0,1.333,0,2,0c0,0.667,0,1.333,0,2
	C4.333,5,3.667,5,3,5C3,4.333,3,3.667,3,3z"/>
<path style="fill-rule:evenodd;clip-rule:evenodd;fill:#666666;" d="M6,3c0.667,0,1.333,0,2,0c0,0.667,0,1.333,0,2
	C7.333,5,6.667,5,6,5C6,4.333,6,3.667,6,3z"/>
<path style="fill-rule:evenodd;clip-rule:evenodd;fill:#666666;" d="M9,3c0.667,0,1.333,0,2,0c0,0.667,0,1.333,0,2
	c-0.667,0-1.333,0-2,0C9,4.333,9,3.667,9,3z"/>
<path style="fill-rule:evenodd;clip-rule:evenodd;fill:#666666;" d="M12,3c0.667,0,1.333,0,2,0c0,0.667,0,1.333,0,2
	c-0.667,0-1.333,0-2,0C12,4.333,12,3.667,12,3z"/>
<path style="fill-rule:evenodd;clip-rule:evenodd;fill:#666666;" d="M15,3c0.667,0,1.333,0,2,0c0,0.667,0,1.333,0,2
	c-0.667,0-1.333,0-2,0C15,4.333,15,3.667,15,3z"/>
<path style="fill-rule:evenodd;clip-rule:evenodd;fill:#666666;" d="M18,3c0.667,0,1.333,0,2,0c0,0.667,0,1.333,0,2
	c-0.667,0-1.333,0-2,0C18,4.333,18,3.667,18,3z"/>
<path style="fill-rule:evenodd;clip-rule:evenodd;fill:#666666;" d="M21,3c0.667,0,1.333,0,2,0c0,0.667,0,1.333,0,2
	c-0.667,0-1.333,0-2,0C21,4.333,21,3.667,21,3z"/>
<path style="fill-rule:evenodd;clip-rule:evenodd;fill:#666666;" d="M24,3c0.667,0,1.333,0,2,0c0,0.667,0,1.333,0,2
	c-0.667,0-1.333,0-2,0C24,4.333,24,3.667,24,3z"/>
<path style="fill-rule:evenodd;clip-rule:evenodd;fill:#666666;" d="M27,3c0.667,0,1.333,0,2,0c0,0.667,0,1.333,0,2
	c-0.667,0-1.333,0-2,0C27,4.333,27,3.667,27,3z"/>
<path style="fill-rule:evenodd;clip-rule:evenodd;fill:#666666;" d="M30,3c0.667,0,1.333,0,2,0c0,0.667,0,1.333,0,2
	c-0.667,0-1.333,0-2,0C30,4.333,30,3.667,30,3z"/>
<path style="fill-rule:evenodd;clip-rule:evenodd;fill:#666666;" d="M33,3c0.667,0,1.333,0,2,0c0,0.667,0,1.333,0,2
	c-0.667,0-1.333,0-2,0C33,4.333,33,3.667,33,3z"/>
<path style="fill-rule:evenodd;clip-rule:evenodd;fill:#666666;" d="M36,3c0.667,0,1.333,0,2,0c0,0.667,0,1.333,0,2
	c-0.667,0-1.333,0-2,0C36,4.333,36,3.667,36,3z"/>
<path style="fill-rule:evenodd;clip-rule:evenodd;fill:#666666;" d="M39,3c0.667,0,1.333,0,2,0c0,0.667,0,1.333,0,2
	c-0.667,0-1.333,0-2,0C39,4.333,39,3.667,39,3z"/>
<path style="fill-rule:evenodd;clip-rule:evenodd;fill:#666666;" d="M42,3c0.667,0,1.333,0,2,0c0,0.667,0,1.333,0,2
	c-0.667,0-1.333,0-2,0C42,4.333,42,3.667,42,3z"/>
<path style="fill-rule:evenodd;clip-rule:evenodd;fill:#666666;" d="M45,3c0.667,0,1.333,0,2,0c0,0.667,0,1.333,0,2
	c-0.667,0-1.333,0-2,0C45,4.333,45,3.667,45,3z"/>
<path style="fill-rule:evenodd;clip-rule:evenodd;fill:#666666;" d="M48,3c0.667,0,1.333,0,2,0c0,0.667,0,1.333,0,2
	c-0.667,0-1.333,0-2,0C48,4.333,48,3.667,48,3z"/>
<path style="fill-rule:evenodd;clip-rule:evenodd;fill:#666666;" d="M0,6c0.667,0,1.333,0,2,0c0,0.667,0,1.333,0,2
	C1.333,8,0.667,8,0,8C0,7.333,0,6.667,0,6z"/>
<path style="fill-rule:evenodd;clip-rule:evenodd;fill:#666666;" d="M3,6c0.667,0,1.333,0,2,0c0,0.667,0,1.333,0,2
	C4.333,8,3.667,8,3,8C3,7.333,3,6.667,3,6z"/>
<path style="fill-rule:evenodd;clip-rule:evenodd;fill:#666666;" d="M6,6c0.667,0,1.333,0,2,0c0,0.667,0,1.333,0,2
	C7.333,8,6.667,8,6,8C6,7.333,6,6.667,6,6z"/>
<path style="fill-rule:evenodd;clip-rule:evenodd;fill:#666666;" d="M9,6c0.667,0,1.333,0,2,0c0,0.667,0,1.333,0,2
	c-0.667,0-1.333,0-2,0C9,7.333,9,6.667,9,6z"/>
<path style="fill-rule:evenodd;clip-rule:evenodd;fill:#666666;" d="M12,6c0.667,0,1.333,0,2,0c0,0.667,0,1.333,0,2
	c-0.667,0-1.333,0-2,0C12,7.333,12,6.667,12,6z"/>
<path style="fill-rule:evenodd;clip-rule:evenodd;fill:#666666;" d="M15,6c0.667,0,1.333,0,2,0c0,0.667,0,1.333,0,2
	c-0.667,0-1.333,0-2,0C15,7.333,15,6.667,15,6z"/>
<path style="fill-rule:evenodd;clip-rule:evenodd;fill:#666666;" d="M18,6c0.667,0,1.333,0,2,0c0,0.667,0,1.333,0,2
	c-0.667,0-1.333,0-2,0C18,7.333,18,6.667,18,6z"/>
<path style="fill-rule:evenodd;clip-rule:evenodd;fill:#666666;" d="M21,6c0.667,0,1.333,0,2,0c0,0.667,0,1.333,0,2
	c-0.667,0-1.333,0-2,0C21,7.333,21,6.667,21,6z"/>
<path style="fill-rule:evenodd;clip-rule:evenodd;fill:#666666;" d="M24,6c0.667,0,1.333,0,2,0c0,0.667,0,1.333,0,2
	c-0.667,0-1.333,0-2,0C24,7.333,24,6.667,24,6z"/>
<path style="fill-rule:evenodd;clip-rule:evenodd;fill:#666666;" d="M27,6c0.667,0,1.333,0,2,0c0,0.667,0,1.333,0,2
	c-0.667,0-1.333,0-2,0C27,7.333,27,6.667,27,6z"/>
<path style="fill-rule:evenodd;clip-rule:evenodd;fill:#666666;" d="M30,6c0.667,0,1.333,0,2,0c0,0.667,0,1.333,0,2
	c-0.667,0-1.333,0-2,0C30,7.333,30,6.667,30,6z"/>
<path style="fill-rule:evenodd;clip-rule:evenodd;fill:#666666;" d="M33,6c0.667,0,1.333,0,2,0c0,0.667,0,1.333,0,2
	c-0.667,0-1.333,0-2,0C33,7.333,33,6.667,33,6z"/>
<path style="fill-rule:evenodd;clip-rule:evenodd;fill:#666666;" d="M36,6c0.667,0,1.333,0,2,0c0,0.667,0,1.333,0,2
	c-0.667,0-1.333,0-2,0C36,7.333,36,6.667,36,6z"/>
<path style="fill-rule:evenodd;clip-rule:evenodd;fill:#666666;" d="M39,6c0.667,0,1.333,0,2,0c0,0.667,0,1.333,0,2
	c-0.667,0-1.333,0-2,0C39,7.333,39,6.667,39,6z"/>
<path style="fill-rule:evenodd;clip-rule:evenodd;fill:#666666;" d="M42,6c0.667,0,1.333,0,2,0c0,0.667,0,1.333,0,2
	c-0.667,0-1.333,0-2,0C42,7.333,42,6.667,42,6z"/>
<path style="fill-rule:evenodd;clip-rule:evenodd;fill:#666666;" d="M45,6c0.667,0,1.333,0,2,0c0,0.667,0,1.333,0,2
	c-0.667,0-1.333,0-2,0C45,7.333,45,6.667,45,6z"/>
<path style="fill-rule:evenodd;clip-rule:evenodd;fill:#666666;" d="M48,6c0.667,0,1.333,0,2,0c0,0.667,0,1.333,0,2
	c-0.667,0-1.333,0-2,0C48,7.333,48,6.667,48,6z"/>
<path style="fill-rule:evenodd;clip-rule:evenodd;fill:#666666;" d="M0,9c0.667,0,1.333,0,2,0c0,0.667,0,1.333,0,2
	c-0.667,0-1.333,0-2,0C0,10.333,0,9.667,0,9z"/>
<path style="fill-rule:evenodd;clip-rule:evenodd;fill:#666666;" d="M3,9c0.667,0,1.333,0,2,0c0,0.667,0,1.333,0,2
	c-0.667,0-1.333,0-2,0C3,10.333,3,9.667,3,9z"/>
<path style="fill-rule:evenodd;clip-rule:evenodd;fill:#666666;" d="M6,9c0.667,0,1.333,0,2,0c0,0.667,0,1.333,0,2
	c-0.667,0-1.333,0-2,0C6,10.333,6,9.667,6,9z"/>
<path style="fill-rule:evenodd;clip-rule:evenodd;fill:#666666;" d="M9,9c0.667,0,1.333,0,2,0c0,0.667,0,1.333,0,2
	c-0.667,0-1.333,0-2,0C9,10.333,9,9.667,9,9z"/>
<path style="fill-rule:evenodd;clip-rule:evenodd;fill:#666666;" d="M12,9c0.667,0,1.333,0,2,0c0,0.667,0,1.333,0,2
	c-0.667,0-1.333,0-2,0C12,10.333,12,9.667,12,9z"/>
<path style="fill-rule:evenodd;clip-rule:evenodd;fill:#666666;" d="M15,9c0.667,0,1.333,0,2,0c0,0.667,0,1.333,0,2
	c-0.667,0-1.333,0-2,0C15,10.333,15,9.667,15,9z"/>
<path style="fill-rule:evenodd;clip-rule:evenodd;fill:#666666;" d="M18,9c0.667,0,1.333,0,2,0c0,0.667,0,1.333,0,2
	c-0.667,0-1.333,0-2,0C18,10.333,18,9.667,18,9z"/>
<path style="fill-rule:evenodd;clip-rule:evenodd;fill:#666666;" d="M21,9c0.667,0,1.333,0,2,0c0,0.667,0,1.333,0,2
	c-0.667,0-1.333,0-2,0C21,10.333,21,9.667,21,9z"/>
<path style="fill-rule:evenodd;clip-rule:evenodd;fill:#666666;" d="M24,9c0.667,0,1.333,0,2,0c0,0.667,0,1.333,0,2
	c-0.667,0-1.333,0-2,0C24,10.333,24,9.667,24,9z"/>
<path style="fill-rule:evenodd;clip-rule:evenodd;fill:#666666;" d="M27,9c0.667,0,1.333,0,2,0c0,0.667,0,1.333,0,2
	c-0.667,0-1.333,0-2,0C27,10.333,27,9.667,27,9z"/>
<path style="fill-rule:evenodd;clip-rule:evenodd;fill:#666666;" d="M30,9c0.667,0,1.333,0,2,0c0,0.667,0,1.333,0,2
	c-0.667,0-1.333,0-2,0C30,10.333,30,9.667,30,9z"/>
<path style="fill-rule:evenodd;clip-rule:evenodd;fill:#666666;" d="M33,9c0.667,0,1.333,0,2,0c0,0.667,0,1.333,0,2
	c-0.667,0-1.333,0-2,0C33,10.333,33,9.667,33,9z"/>
<path style="fill-rule:evenodd;clip-rule:evenodd;fill:#666666;" d="M36,9c0.667,0,1.333,0,2,0c0,0.667,0,1.333,0,2
	c-0.667,0-1.333,0-2,0C36,10.333,36,9.667,36,9z"/>
<path style="fill-rule:evenodd;clip-rule:evenodd;fill:#666666;" d="M39,9c0.667,0,1.333,0,2,0c0,0.667,0,1.333,0,2
	c-0.667,0-1.333,0-2,0C39,10.333,39,9.667,39,9z"/>
<path style="fill-rule:evenodd;clip-rule:evenodd;fill:#666666;" d="M42,9c0.667,0,1.333,0,2,0c0,0.667,0,1.333,0,2
	c-0.667,0-1.333,0-2,0C42,10.333,42,9.667,42,9z"/>
<path style="fill-rule:evenodd;clip-rule:evenodd;fill:#666666;" d="M45,9c0.667,0,1.333,0,2,0c0,0.667,0,1.333,0,2
	c-0.667,0-1.333,0-2,0C45,10.333,45,9.667,45,9z"/>
<path style="fill-rule:evenodd;clip-rule:evenodd;fill:#666666;" d="M48,9c0.667,0,1.333,0,2,0c0,0.667,0,1.333,0,2
	c-0.667,0-1.333,0-2,0C48,10.333,48,9.667,48,9z"/>
<path style="fill-rule:evenodd;clip-rule:evenodd;fill:#666666;" d="M0,12c0.667,0,1.333,0,2,0c0,0.667,0,1.333,0,2
	c-0.667,0-1.333,0-2,0C0,13.333,0,12.667,0,12z"/>
<path style="fill-rule:evenodd;clip-rule:evenodd;fill:#666666;" d="M3,12c0.667,0,1.333,0,2,0c0,0.667,0,1.333,0,2
	c-0.667,0-1.333,0-2,0C3,13.333,3,12.667,3,12z"/>
<path style="fill-rule:evenodd;clip-rule:evenodd;fill:#666666;" d="M6,12c0.667,0,1.333,0,2,0c0,0.667,0,1.333,0,2
	c-0.667,0-1.333,0-2,0C6,13.333,6,12.667,6,12z"/>
<path style="fill-rule:evenodd;clip-rule:evenodd;fill:#666666;" d="M9,12c0.667,0,1.333,0,2,0c0,0.667,0,1.333,0,2
	c-0.667,0-1.333,0-2,0C9,13.333,9,12.667,9,12z"/>
<path style="fill-rule:evenodd;clip-rule:evenodd;fill:#666666;" d="M39,12c0.667,0,1.333,0,2,0c0,0.667,0,1.333,0,2
	c-0.667,0-1.333,0-2,0C39,13.333,39,12.667,39,12z"/>
<path style="fill-rule:evenodd;clip-rule:evenodd;fill:#666666;" d="M42,12c0.667,0,1.333,0,2,0c0,0.667,0,1.333,0,2
	c-0.667,0-1.333,0-2,0C42,13.333,42,12.667,42,12z"/>
<path style="fill-rule:evenodd;clip-rule:evenodd;fill:#666666;" d="M45,12c0.667,0,1.333,0,2,0c0,0.667,0,1.333,0,2
	c-0.667,0-1.333,0-2,0C45,13.333,45,12.667,45,12z"/>
<path style="fill-rule:evenodd;clip-rule:evenodd;fill:#666666;" d="M48,12c0.667,0,1.333,0,2,0c0,0.667,0,1.333,0,2
	c-0.667,0-1.333,0-2,0C48,13.333,48,12.667,48,12z"/>
<path style="fill-rule:evenodd;clip-rule:evenodd;fill:#666666;" d="M0,15c0.667,0,1.333,0,2,0c0,0.667,0,1.333,0,2
	c-0.667,0-1.333,0-2,0C0,16.333,0,15.667,0,15z"/>
<path style="fill-rule:evenodd;clip-rule:evenodd;fill:#666666;" d="M3,15c0.667,0,1.333,0,2,0c0,0.667,0,1.333,0,2
	c-0.667,0-1.333,0-2,0C3,16.333,3,15.667,3,15z"/>
<path style="fill-rule:evenodd;clip-rule:evenodd;fill:#666666;" d="M6,15c0.667,0,1.333,0,2,0c0,0.667,0,1.333,0,2
	c-0.667,0-1.333,0-2,0C6,16.333,6,15.667,6,15z"/>
<path style="fill-rule:evenodd;clip-rule:evenodd;fill:#666666;" d="M9,15c0.667,0,1.333,0,2,0c0,0.667,0,1.333,0,2
	c-0.667,0-1.333,0-2,0C9,16.333,9,15.667,9,15z"/>
<path style="fill-rule:evenodd;clip-rule:evenodd;fill:#666666;" d="M12,15c0.667,0,1.333,0,2,0c0,0.667,0,1.333,0,2
	c-0.667,0-1.333,0-2,0C12,16.333,12,15.667,12,15z"/>
<path style="fill-rule:evenodd;clip-rule:evenodd;fill:#666666;" d="M15,15c0.667,0,1.333,0,2,0c0,0.667,0,1.333,0,2
	c-0.667,0-1.333,0-2,0C15,16.333,15,15.667,15,15z"/>
<path style="fill-rule:evenodd;clip-rule:evenodd;fill:#666666;" d="M18,15c0.667,0,1.333,0,2,0c0,0.667,0,1.333,0,2
	c-0.667,0-1.333,0-2,0C18,16.333,18,15.667,18,15z"/>
<path style="fill-rule:evenodd;clip-rule:evenodd;fill:#666666;" d="M21,15c0.667,0,1.333,0,2,0c0,0.667,0,1.333,0,2
	c-0.667,0-1.333,0-2,0C21,16.333,21,15.667,21,15z"/>
<path style="fill-rule:evenodd;clip-rule:evenodd;fill:#666666;" d="M24,15c0.667,0,1.333,0,2,0c0,0.667,0,1.333,0,2
	c-0.667,0-1.333,0-2,0C24,16.333,24,15.667,24,15z"/>
<path style="fill-rule:evenodd;clip-rule:evenodd;fill:#666666;" d="M27,15c0.667,0,1.333,0,2,0c0,0.667,0,1.333,0,2
	c-0.667,0-1.333,0-2,0C27,16.333,27,15.667,27,15z"/>
<path style="fill-rule:evenodd;clip-rule:evenodd;fill:#666666;" d="M30,15c0.667,0,1.333,0,2,0c0,0.667,0,1.333,0,2
	c-0.667,0-1.333,0-2,0C30,16.333,30,15.667,30,15z"/>
<path style="fill-rule:evenodd;clip-rule:evenodd;fill:#666666;" d="M33,15c0.667,0,1.333,0,2,0c0,0.667,0,1.333,0,2
	c-0.667,0-1.333,0-2,0C33,16.333,33,15.667,33,15z"/>
<path style="fill-rule:evenodd;clip-rule:evenodd;fill:#666666;" d="M36,15c0.667,0,1.333,0,2,0c0,0.667,0,1.333,0,2
	c-0.667,0-1.333,0-2,0C36,16.333,36,15.667,36,15z"/>
<path style="fill-rule:evenodd;clip-rule:evenodd;fill:#666666;" d="M39,15c0.667,0,1.333,0,2,0c0,0.667,0,1.333,0,2
	c-0.667,0-1.333,0-2,0C39,16.333,39,15.667,39,15z"/>
<path style="fill-rule:evenodd;clip-rule:evenodd;fill:#666666;" d="M42,15c0.667,0,1.333,0,2,0c0,0.667,0,1.333,0,2
	c-0.667,0-1.333,0-2,0C42,16.333,42,15.667,42,15z"/>
<path style="fill-rule:evenodd;clip-rule:evenodd;fill:#666666;" d="M45,15c0.667,0,1.333,0,2,0c0,0.667,0,1.333,0,2
	c-0.667,0-1.333,0-2,0C45,16.333,45,15.667,45,15z"/>
<path style="fill-rule:evenodd;clip-rule:evenodd;fill:#666666;" d="M48,15c0.667,0,1.333,0,2,0c0,0.667,0,1.333,0,2
	c-0.667,0-1.333,0-2,0C48,16.333,48,15.667,48,15z"/>
<path style="fill-rule:evenodd;clip-rule:evenodd;fill:#666666;" d="M0,18c0.667,0,1.333,0,2,0c0,0.667,0,1.333,0,2
	c-0.667,0-1.333,0-2,0C0,19.333,0,18.667,0,18z"/>
<path style="fill-rule:evenodd;clip-rule:evenodd;fill:#666666;" d="M3,18c0.667,0,1.333,0,2,0c0,0.667,0,1.333,0,2
	c-0.667,0-1.333,0-2,0C3,19.333,3,18.667,3,18z"/>
<path style="fill-rule:evenodd;clip-rule:evenodd;fill:#666666;" d="M6,18c0.667,0,1.333,0,2,0c0,0.667,0,1.333,0,2
	c-0.667,0-1.333,0-2,0C6,19.333,6,18.667,6,18z"/>
<path style="fill-rule:evenodd;clip-rule:evenodd;fill:#666666;" d="M9,18c0.667,0,1.333,0,2,0c0,0.667,0,1.333,0,2
	c-0.667,0-1.333,0-2,0C9,19.333,9,18.667,9,18z"/>
<path style="fill-rule:evenodd;clip-rule:evenodd;fill:#666666;" d="M12,18c0.667,0,1.333,0,2,0c0,0.667,0,1.333,0,2
	c-0.667,0-1.333,0-2,0C12,19.333,12,18.667,12,18z"/>
<path style="fill-rule:evenodd;clip-rule:evenodd;fill:#666666;" d="M15,18c0.667,0,1.333,0,2,0c0,0.667,0,1.333,0,2
	c-0.667,0-1.333,0-2,0C15,19.333,15,18.667,15,18z"/>
<path style="fill-rule:evenodd;clip-rule:evenodd;fill:#666666;" d="M18,18c0.667,0,1.333,0,2,0c0,0.667,0,1.333,0,2
	c-0.667,0-1.333,0-2,0C18,19.333,18,18.667,18,18z"/>
<path style="fill-rule:evenodd;clip-rule:evenodd;fill:#666666;" d="M21,18c0.667,0,1.333,0,2,0c0,0.667,0,1.333,0,2
	c-0.667,0-1.333,0-2,0C21,19.333,21,18.667,21,18z"/>
<path style="fill-rule:evenodd;clip-rule:evenodd;fill:#666666;" d="M27,18c0.667,0,1.333,0,2,0c0,0.667,0,1.333,0,2
	c-0.667,0-1.333,0-2,0C27,19.333,27,18.667,27,18z"/>
<path style="fill-rule:evenodd;clip-rule:evenodd;fill:#666666;" d="M30,18c0.667,0,1.333,0,2,0c0,0.667,0,1.333,0,2
	c-0.667,0-1.333,0-2,0C30,19.333,30,18.667,30,18z"/>
<path style="fill-rule:evenodd;clip-rule:evenodd;fill:#666666;" d="M33,18c0.667,0,1.333,0,2,0c0,0.667,0,1.333,0,2
	c-0.667,0-1.333,0-2,0C33,19.333,33,18.667,33,18z"/>
<path style="fill-rule:evenodd;clip-rule:evenodd;fill:#666666;" d="M36,18c0.667,0,1.333,0,2,0c0,0.667,0,1.333,0,2
	c-0.667,0-1.333,0-2,0C36,19.333,36,18.667,36,18z"/>
<path style="fill-rule:evenodd;clip-rule:evenodd;fill:#666666;" d="M39,18c0.667,0,1.333,0,2,0c0,0.667,0,1.333,0,2
	c-0.667,0-1.333,0-2,0C39,19.333,39,18.667,39,18z"/>
<path style="fill-rule:evenodd;clip-rule:evenodd;fill:#666666;" d="M42,18c0.667,0,1.333,0,2,0c0,0.667,0,1.333,0,2
	c-0.667,0-1.333,0-2,0C42,19.333,42,18.667,42,18z"/>
<path style="fill-rule:evenodd;clip-rule:evenodd;fill:#666666;" d="M45,18c0.667,0,1.333,0,2,0c0,0.667,0,1.333,0,2
	c-0.667,0-1.333,0-2,0C45,19.333,45,18.667,45,18z"/>
<path style="fill-rule:evenodd;clip-rule:evenodd;fill:#666666;" d="M48,18c0.667,0,1.333,0,2,0c0,0.667,0,1.333,0,2
	c-0.667,0-1.333,0-2,0C48,19.333,48,18.667,48,18z"/>
<path style="fill-rule:evenodd;clip-rule:evenodd;fill:#666666;" d="M0,21c0.667,0,1.333,0,2,0c0,0.667,0,1.333,0,2
	c-0.667,0-1.333,0-2,0C0,22.333,0,21.667,0,21z"/>
<path style="fill-rule:evenodd;clip-rule:evenodd;fill:#666666;" d="M3,21c0.667,0,1.333,0,2,0c0,0.667,0,1.333,0,2
	c-0.667,0-1.333,0-2,0C3,22.333,3,21.667,3,21z"/>
<path style="fill-rule:evenodd;clip-rule:evenodd;fill:#666666;" d="M6,21c0.667,0,1.333,0,2,0c0,0.667,0,1.333,0,2
	c-0.667,0-1.333,0-2,0C6,22.333,6,21.667,6,21z"/>
<path style="fill-rule:evenodd;clip-rule:evenodd;fill:#666666;" d="M9,21c0.667,0,1.333,0,2,0c0,0.667,0,1.333,0,2
	c-0.667,0-1.333,0-2,0C9,22.333,9,21.667,9,21z"/>
<path style="fill-rule:evenodd;clip-rule:evenodd;fill:#666666;" d="M12,21c0.667,0,1.333,0,2,0c0,0.667,0,1.333,0,2
	c-0.667,0-1.333,0-2,0C12,22.333,12,21.667,12,21z"/>
<path style="fill-rule:evenodd;clip-rule:evenodd;fill:#666666;" d="M15,21c0.667,0,1.333,0,2,0c0,0.667,0,1.333,0,2
	c-0.667,0-1.333,0-2,0C15,22.333,15,21.667,15,21z"/>
<path style="fill-rule:evenodd;clip-rule:evenodd;fill:#666666;" d="M18,21c0.667,0,1.333,0,2,0c0,0.667,0,1.333,0,2
	c-0.667,0-1.333,0-2,0C18,22.333,18,21.667,18,21z"/>
<path style="fill-rule:evenodd;clip-rule:evenodd;fill:#666666;" d="M30,21c0.667,0,1.333,0,2,0c0,0.667,0,1.333,0,2
	c-0.667,0-1.333,0-2,0C30,22.333,30,21.667,30,21z"/>
<path style="fill-rule:evenodd;clip-rule:evenodd;fill:#666666;" d="M33,21c0.667,0,1.333,0,2,0c0,0.667,0,1.333,0,2
	c-0.667,0-1.333,0-2,0C33,22.333,33,21.667,33,21z"/>
<path style="fill-rule:evenodd;clip-rule:evenodd;fill:#666666;" d="M36,21c0.667,0,1.333,0,2,0c0,0.667,0,1.333,0,2
	c-0.667,0-1.333,0-2,0C36,22.333,36,21.667,36,21z"/>
<path style="fill-rule:evenodd;clip-rule:evenodd;fill:#666666;" d="M39,21c0.667,0,1.333,0,2,0c0,0.667,0,1.333,0,2
	c-0.667,0-1.333,0-2,0C39,22.333,39,21.667,39,21z"/>
<path style="fill-rule:evenodd;clip-rule:evenodd;fill:#666666;" d="M42,21c0.667,0,1.333,0,2,0c0,0.667,0,1.333,0,2
	c-0.667,0-1.333,0-2,0C42,22.333,42,21.667,42,21z"/>
<path style="fill-rule:evenodd;clip-rule:evenodd;fill:#666666;" d="M45,21c0.667,0,1.333,0,2,0c0,0.667,0,1.333,0,2
	c-0.667,0-1.333,0-2,0C45,22.333,45,21.667,45,21z"/>
<path style="fill-rule:evenodd;clip-rule:evenodd;fill:#666666;" d="M48,21c0.667,0,1.333,0,2,0c0,0.667,0,1.333,0,2
	c-0.667,0-1.333,0-2,0C48,22.333,48,21.667,48,21z"/>
<path style="fill-rule:evenodd;clip-rule:evenodd;fill:#666666;" d="M0,24c0.667,0,1.333,0,2,0c0,0.667,0,1.333,0,2
	c-0.667,0-1.333,0-2,0C0,25.333,0,24.667,0,24z"/>
<path style="fill-rule:evenodd;clip-rule:evenodd;fill:#666666;" d="M3,24c0.667,0,1.333,0,2,0c0,0.667,0,1.333,0,2
	c-0.667,0-1.333,0-2,0C3,25.333,3,24.667,3,24z"/>
<path style="fill-rule:evenodd;clip-rule:evenodd;fill:#666666;" d="M6,24c0.667,0,1.333,0,2,0c0,0.667,0,1.333,0,2
	c-0.667,0-1.333,0-2,0C6,25.333,6,24.667,6,24z"/>
<path style="fill-rule:evenodd;clip-rule:evenodd;fill:#666666;" d="M9,24c0.667,0,1.333,0,2,0c0,0.667,0,1.333,0,2
	c-0.667,0-1.333,0-2,0C9,25.333,9,24.667,9,24z"/>
<path style="fill-rule:evenodd;clip-rule:evenodd;fill:#666666;" d="M12,24c0.667,0,1.333,0,2,0c0,0.667,0,1.333,0,2
	c-0.667,0-1.333,0-2,0C12,25.333,12,24.667,12,24z"/>
<path style="fill-rule:evenodd;clip-rule:evenodd;fill:#666666;" d="M15,24c0.667,0,1.333,0,2,0c0,0.667,0,1.333,0,2
	c-0.667,0-1.333,0-2,0C15,25.333,15,24.667,15,24z"/>
<path style="fill-rule:evenodd;clip-rule:evenodd;fill:#666666;" d="M33,24c0.667,0,1.333,0,2,0c0,0.667,0,1.333,0,2
	c-0.667,0-1.333,0-2,0C33,25.333,33,24.667,33,24z"/>
<path style="fill-rule:evenodd;clip-rule:evenodd;fill:#666666;" d="M36,24c0.667,0,1.333,0,2,0c0,0.667,0,1.333,0,2
	c-0.667,0-1.333,0-2,0C36,25.333,36,24.667,36,24z"/>
<path style="fill-rule:evenodd;clip-rule:evenodd;fill:#666666;" d="M39,24c0.667,0,1.333,0,2,0c0,0.667,0,1.333,0,2
	c-0.667,0-1.333,0-2,0C39,25.333,39,24.667,39,24z"/>
<path style="fill-rule:evenodd;clip-rule:evenodd;fill:#666666;" d="M42,24c0.667,0,1.333,0,2,0c0,0.667,0,1.333,0,2
	c-0.667,0-1.333,0-2,0C42,25.333,42,24.667,42,24z"/>
<path style="fill-rule:evenodd;clip-rule:evenodd;fill:#666666;" d="M45,24c0.667,0,1.333,0,2,0c0,0.667,0,1.333,0,2
	c-0.667,0-1.333,0-2,0C45,25.333,45,24.667,45,24z"/>
<path style="fill-rule:evenodd;clip-rule:evenodd;fill:#666666;" d="M48,24c0.667,0,1.333,0,2,0c0,0.667,0,1.333,0,2
	c-0.667,0-1.333,0-2,0C48,25.333,48,24.667,48,24z"/>
<path style="fill-rule:evenodd;clip-rule:evenodd;fill:#666666;" d="M0,27c0.667,0,1.333,0,2,0c0,0.667,0,1.333,0,2
	c-0.667,0-1.333,0-2,0C0,28.333,0,27.667,0,27z"/>
<path style="fill-rule:evenodd;clip-rule:evenodd;fill:#666666;" d="M3,27c0.667,0,1.333,0,2,0c0,0.667,0,1.333,0,2
	c-0.667,0-1.333,0-2,0C3,28.333,3,27.667,3,27z"/>
<path style="fill-rule:evenodd;clip-rule:evenodd;fill:#666666;" d="M6,27c0.667,0,1.333,0,2,0c0,0.667,0,1.333,0,2
	c-0.667,0-1.333,0-2,0C6,28.333,6,27.667,6,27z"/>
<path style="fill-rule:evenodd;clip-rule:evenodd;fill:#666666;" d="M9,27c0.667,0,1.333,0,2,0c0,0.667,0,1.333,0,2
	c-0.667,0-1.333,0-2,0C9,28.333,9,27.667,9,27z"/>
<path style="fill-rule:evenodd;clip-rule:evenodd;fill:#666666;" d="M12,27c0.667,0,1.333,0,2,0c0,0.667,0,1.333,0,2
	c-0.667,0-1.333,0-2,0C12,28.333,12,27.667,12,27z"/>
<path style="fill-rule:evenodd;clip-rule:evenodd;fill:#666666;" d="M36,27c0.667,0,1.333,0,2,0c0,0.667,0,1.333,0,2
	c-0.667,0-1.333,0-2,0C36,28.333,36,27.667,36,27z"/>
<path style="fill-rule:evenodd;clip-rule:evenodd;fill:#666666;" d="M39,27c0.667,0,1.333,0,2,0c0,0.667,0,1.333,0,2
	c-0.667,0-1.333,0-2,0C39,28.333,39,27.667,39,27z"/>
<path style="fill-rule:evenodd;clip-rule:evenodd;fill:#666666;" d="M42,27c0.667,0,1.333,0,2,0c0,0.667,0,1.333,0,2
	c-0.667,0-1.333,0-2,0C42,28.333,42,27.667,42,27z"/>
<path style="fill-rule:evenodd;clip-rule:evenodd;fill:#666666;" d="M45,27c0.667,0,1.333,0,2,0c0,0.667,0,1.333,0,2
	c-0.667,0-1.333,0-2,0C45,28.333,45,27.667,45,27z"/>
<path style="fill-rule:evenodd;clip-rule:evenodd;fill:#666666;" d="M48,27c0.667,0,1.333,0,2,0c0,0.667,0,1.333,0,2
	c-0.667,0-1.333,0-2,0C48,28.333,48,27.667,48,27z"/>
<path style="fill-rule:evenodd;clip-rule:evenodd;fill:#666666;" d="M0,30c0.667,0,1.333,0,2,0c0,0.667,0,1.333,0,2
	c-0.667,0-1.333,0-2,0C0,31.333,0,30.667,0,30z"/>
<path style="fill-rule:evenodd;clip-rule:evenodd;fill:#666666;" d="M3,30c0.667,0,1.333,0,2,0c0,0.667,0,1.333,0,2
	c-0.667,0-1.333,0-2,0C3,31.333,3,30.667,3,30z"/>
<path style="fill-rule:evenodd;clip-rule:evenodd;fill:#666666;" d="M6,30c0.667,0,1.333,0,2,0c0,0.667,0,1.333,0,2
	c-0.667,0-1.333,0-2,0C6,31.333,6,30.667,6,30z"/>
<path style="fill-rule:evenodd;clip-rule:evenodd;fill:#666666;" d="M9,30c0.667,0,1.333,0,2,0c0,0.667,0,1.333,0,2
	c-0.667,0-1.333,0-2,0C9,31.333,9,30.667,9,30z"/>
<path style="fill-rule:evenodd;clip-rule:evenodd;fill:#666666;" d="M12,30c0.667,0,1.333,0,2,0c0,0.667,0,1.333,0,2
	c-0.667,0-1.333,0-2,0C12,31.333,12,30.667,12,30z"/>
<path style="fill-rule:evenodd;clip-rule:evenodd;fill:#666666;" d="M15,30c0.667,0,1.333,0,2,0c0,0.667,0,1.333,0,2
	c-0.667,0-1.333,0-2,0C15,31.333,15,30.667,15,30z"/>
<path style="fill-rule:evenodd;clip-rule:evenodd;fill:#666666;" d="M18,30c0.667,0,1.333,0,2,0c0,0.667,0,1.333,0,2
	c-0.667,0-1.333,0-2,0C18,31.333,18,30.667,18,30z"/>
<path style="fill-rule:evenodd;clip-rule:evenodd;fill:#666666;" d="M30,30c0.667,0,1.333,0,2,0c0,0.667,0,1.333,0,2
	c-0.667,0-1.333,0-2,0C30,31.333,30,30.667,30,30z"/>
<path style="fill-rule:evenodd;clip-rule:evenodd;fill:#666666;" d="M33,30c0.667,0,1.333,0,2,0c0,0.667,0,1.333,0,2
	c-0.667,0-1.333,0-2,0C33,31.333,33,30.667,33,30z"/>
<path style="fill-rule:evenodd;clip-rule:evenodd;fill:#666666;" d="M36,30c0.667,0,1.333,0,2,0c0,0.667,0,1.333,0,2
	c-0.667,0-1.333,0-2,0C36,31.333,36,30.667,36,30z"/>
<path style="fill-rule:evenodd;clip-rule:evenodd;fill:#666666;" d="M39,30c0.667,0,1.333,0,2,0c0,0.667,0,1.333,0,2
	c-0.667,0-1.333,0-2,0C39,31.333,39,30.667,39,30z"/>
<path style="fill-rule:evenodd;clip-rule:evenodd;fill:#666666;" d="M42,30c0.667,0,1.333,0,2,0c0,0.667,0,1.333,0,2
	c-0.667,0-1.333,0-2,0C42,31.333,42,30.667,42,30z"/>
<path style="fill-rule:evenodd;clip-rule:evenodd;fill:#666666;" d="M45,30c0.667,0,1.333,0,2,0c0,0.667,0,1.333,0,2
	c-0.667,0-1.333,0-2,0C45,31.333,45,30.667,45,30z"/>
<path style="fill-rule:evenodd;clip-rule:evenodd;fill:#666666;" d="M48,30c0.667,0,1.333,0,2,0c0,0.667,0,1.333,0,2
	c-0.667,0-1.333,0-2,0C48,31.333,48,30.667,48,30z"/>
<path style="fill-rule:evenodd;clip-rule:evenodd;fill:#666666;" d="M0,33c0.667,0,1.333,0,2,0c0,0.667,0,1.333,0,2
	c-0.667,0-1.333,0-2,0C0,34.333,0,33.667,0,33z"/>
<path style="fill-rule:evenodd;clip-rule:evenodd;fill:#666666;" d="M3,33c0.667,0,1.333,0,2,0c0,0.667,0,1.333,0,2
	c-0.667,0-1.333,0-2,0C3,34.333,3,33.667,3,33z"/>
<path style="fill-rule:evenodd;clip-rule:evenodd;fill:#666666;" d="M6,33c0.667,0,1.333,0,2,0c0,0.667,0,1.333,0,2
	c-0.667,0-1.333,0-2,0C6,34.333,6,33.667,6,33z"/>
<path style="fill-rule:evenodd;clip-rule:evenodd;fill:#666666;" d="M9,33c0.667,0,1.333,0,2,0c0,0.667,0,1.333,0,2
	c-0.667,0-1.333,0-2,0C9,34.333,9,33.667,9,33z"/>
<path style="fill-rule:evenodd;clip-rule:evenodd;fill:#666666;" d="M12,33c0.667,0,1.333,0,2,0c0,0.667,0,1.333,0,2
	c-0.667,0-1.333,0-2,0C12,34.333,12,33.667,12,33z"/>
<path style="fill-rule:evenodd;clip-rule:evenodd;fill:#666666;" d="M15,33c0.667,0,1.333,0,2,0c0,0.667,0,1.333,0,2
	c-0.667,0-1.333,0-2,0C15,34.333,15,33.667,15,33z"/>
<path style="fill-rule:evenodd;clip-rule:evenodd;fill:#666666;" d="M18,33c0.667,0,1.333,0,2,0c0,0.667,0,1.333,0,2
	c-0.667,0-1.333,0-2,0C18,34.333,18,33.667,18,33z"/>
<path style="fill-rule:evenodd;clip-rule:evenodd;fill:#666666;" d="M30,33c0.667,0,1.333,0,2,0c0,0.667,0,1.333,0,2
	c-0.667,0-1.333,0-2,0C30,34.333,30,33.667,30,33z"/>
<path style="fill-rule:evenodd;clip-rule:evenodd;fill:#666666;" d="M33,33c0.667,0,1.333,0,2,0c0,0.667,0,1.333,0,2
	c-0.667,0-1.333,0-2,0C33,34.333,33,33.667,33,33z"/>
<path style="fill-rule:evenodd;clip-rule:evenodd;fill:#666666;" d="M36,33c0.667,0,1.333,0,2,0c0,0.667,0,1.333,0,2
	c-0.667,0-1.333,0-2,0C36,34.333,36,33.667,36,33z"/>
<path style="fill-rule:evenodd;clip-rule:evenodd;fill:#666666;" d="M39,33c0.667,0,1.333,0,2,0c0,0.667,0,1.333,0,2
	c-0.667,0-1.333,0-2,0C39,34.333,39,33.667,39,33z"/>
<path style="fill-rule:evenodd;clip-rule:evenodd;fill:#666666;" d="M42,33c0.667,0,1.333,0,2,0c0,0.667,0,1.333,0,2
	c-0.667,0-1.333,0-2,0C42,34.333,42,33.667,42,33z"/>
<path style="fill-rule:evenodd;clip-rule:evenodd;fill:#666666;" d="M45,33c0.667,0,1.333,0,2,0c0,0.667,0,1.333,0,2
	c-0.667,0-1.333,0-2,0C45,34.333,45,33.667,45,33z"/>
<path style="fill-rule:evenodd;clip-rule:evenodd;fill:#666666;" d="M48,33c0.667,0,1.333,0,2,0c0,0.667,0,1.333,0,2
	c-0.667,0-1.333,0-2,0C48,34.333,48,33.667,48,33z"/>
<path style="fill-rule:evenodd;clip-rule:evenodd;fill:#666666;" d="M0,36c0.667,0,1.333,0,2,0c0,0.667,0,1.333,0,2
	c-0.667,0-1.333,0-2,0C0,37.333,0,36.667,0,36z"/>
<path style="fill-rule:evenodd;clip-rule:evenodd;fill:#666666;" d="M3,36c0.667,0,1.333,0,2,0c0,0.667,0,1.333,0,2
	c-0.667,0-1.333,0-2,0C3,37.333,3,36.667,3,36z"/>
<path style="fill-rule:evenodd;clip-rule:evenodd;fill:#666666;" d="M6,36c0.667,0,1.333,0,2,0c0,0.667,0,1.333,0,2
	c-0.667,0-1.333,0-2,0C6,37.333,6,36.667,6,36z"/>
<path style="fill-rule:evenodd;clip-rule:evenodd;fill:#666666;" d="M9,36c0.667,0,1.333,0,2,0c0,0.667,0,1.333,0,2
	c-0.667,0-1.333,0-2,0C9,37.333,9,36.667,9,36z"/>
<path style="fill-rule:evenodd;clip-rule:evenodd;fill:#666666;" d="M12,36c0.667,0,1.333,0,2,0c0,0.667,0,1.333,0,2
	c-0.667,0-1.333,0-2,0C12,37.333,12,36.667,12,36z"/>
<path style="fill-rule:evenodd;clip-rule:evenodd;fill:#666666;" d="M15,36c0.667,0,1.333,0,2,0c0,0.667,0,1.333,0,2
	c-0.667,0-1.333,0-2,0C15,37.333,15,36.667,15,36z"/>
<path style="fill-rule:evenodd;clip-rule:evenodd;fill:#666666;" d="M18,36c0.667,0,1.333,0,2,0c0,0.667,0,1.333,0,2
	c-0.667,0-1.333,0-2,0C18,37.333,18,36.667,18,36z"/>
<path style="fill-rule:evenodd;clip-rule:evenodd;fill:#666666;" d="M30,36c0.667,0,1.333,0,2,0c0,0.667,0,1.333,0,2
	c-0.667,0-1.333,0-2,0C30,37.333,30,36.667,30,36z"/>
<path style="fill-rule:evenodd;clip-rule:evenodd;fill:#666666;" d="M33,36c0.667,0,1.333,0,2,0c0,0.667,0,1.333,0,2
	c-0.667,0-1.333,0-2,0C33,37.333,33,36.667,33,36z"/>
<path style="fill-rule:evenodd;clip-rule:evenodd;fill:#666666;" d="M36,36c0.667,0,1.333,0,2,0c0,0.667,0,1.333,0,2
	c-0.667,0-1.333,0-2,0C36,37.333,36,36.667,36,36z"/>
<path style="fill-rule:evenodd;clip-rule:evenodd;fill:#666666;" d="M39,36c0.667,0,1.333,0,2,0c0,0.667,0,1.333,0,2
	c-0.667,0-1.333,0-2,0C39,37.333,39,36.667,39,36z"/>
<path style="fill-rule:evenodd;clip-rule:evenodd;fill:#666666;" d="M42,36c0.667,0,1.333,0,2,0c0,0.667,0,1.333,0,2
	c-0.667,0-1.333,0-2,0C42,37.333,42,36.667,42,36z"/>
<path style="fill-rule:evenodd;clip-rule:evenodd;fill:#666666;" d="M45,36c0.667,0,1.333,0,2,0c0,0.667,0,1.333,0,2
	c-0.667,0-1.333,0-2,0C45,37.333,45,36.667,45,36z"/>
<path style="fill-rule:evenodd;clip-rule:evenodd;fill:#666666;" d="M48,36c0.667,0,1.333,0,2,0c0,0.667,0,1.333,0,2
	c-0.667,0-1.333,0-2,0C48,37.333,48,36.667,48,36z"/>
<path style="fill-rule:evenodd;clip-rule:evenodd;fill:#666666;" d="M0,39c0.667,0,1.333,0,2,0c0,0.667,0,1.333,0,2
	c-0.667,0-1.333,0-2,0C0,40.333,0,39.667,0,39z"/>
<path style="fill-rule:evenodd;clip-rule:evenodd;fill:#666666;" d="M3,39c0.667,0,1.333,0,2,0c0,0.667,0,1.333,0,2
	c-0.667,0-1.333,0-2,0C3,40.333,3,39.667,3,39z"/>
<path style="fill-rule:evenodd;clip-rule:evenodd;fill:#666666;" d="M6,39c0.667,0,1.333,0,2,0c0,0.667,0,1.333,0,2
	c-0.667,0-1.333,0-2,0C6,40.333,6,39.667,6,39z"/>
<path style="fill-rule:evenodd;clip-rule:evenodd;fill:#666666;" d="M9,39c0.667,0,1.333,0,2,0c0,0.667,0,1.333,0,2
	c-0.667,0-1.333,0-2,0C9,40.333,9,39.667,9,39z"/>
<path style="fill-rule:evenodd;clip-rule:evenodd;fill:#666666;" d="M12,39c0.667,0,1.333,0,2,0c0,0.667,0,1.333,0,2
	c-0.667,0-1.333,0-2,0C12,40.333,12,39.667,12,39z"/>
<path style="fill-rule:evenodd;clip-rule:evenodd;fill:#666666;" d="M15,39c0.667,0,1.333,0,2,0c0,0.667,0,1.333,0,2
	c-0.667,0-1.333,0-2,0C15,40.333,15,39.667,15,39z"/>
<path style="fill-rule:evenodd;clip-rule:evenodd;fill:#666666;" d="M18,39c0.667,0,1.333,0,2,0c0,0.667,0,1.333,0,2
	c-0.667,0-1.333,0-2,0C18,40.333,18,39.667,18,39z"/>
<path style="fill-rule:evenodd;clip-rule:evenodd;fill:#666666;" d="M21,39c0.667,0,1.333,0,2,0c0,0.667,0,1.333,0,2
	c-0.667,0-1.333,0-2,0C21,40.333,21,39.667,21,39z"/>
<path style="fill-rule:evenodd;clip-rule:evenodd;fill:#666666;" d="M24,39c0.667,0,1.333,0,2,0c0,0.667,0,1.333,0,2
	c-0.667,0-1.333,0-2,0C24,40.333,24,39.667,24,39z"/>
<path style="fill-rule:evenodd;clip-rule:evenodd;fill:#666666;" d="M27,39c0.667,0,1.333,0,2,0c0,0.667,0,1.333,0,2
	c-0.667,0-1.333,0-2,0C27,40.333,27,39.667,27,39z"/>
<path style="fill-rule:evenodd;clip-rule:evenodd;fill:#666666;" d="M30,39c0.667,0,1.333,0,2,0c0,0.667,0,1.333,0,2
	c-0.667,0-1.333,0-2,0C30,40.333,30,39.667,30,39z"/>
<path style="fill-rule:evenodd;clip-rule:evenodd;fill:#666666;" d="M33,39c0.667,0,1.333,0,2,0c0,0.667,0,1.333,0,2
	c-0.667,0-1.333,0-2,0C33,40.333,33,39.667,33,39z"/>
<path style="fill-rule:evenodd;clip-rule:evenodd;fill:#666666;" d="M36,39c0.667,0,1.333,0,2,0c0,0.667,0,1.333,0,2
	c-0.667,0-1.333,0-2,0C36,40.333,36,39.667,36,39z"/>
<path style="fill-rule:evenodd;clip-rule:evenodd;fill:#666666;" d="M39,39c0.667,0,1.333,0,2,0c0,0.667,0,1.333,0,2
	c-0.667,0-1.333,0-2,0C39,40.333,39,39.667,39,39z"/>
<path style="fill-rule:evenodd;clip-rule:evenodd;fill:#666666;" d="M42,39c0.667,0,1.333,0,2,0c0,0.667,0,1.333,0,2
	c-0.667,0-1.333,0-2,0C42,40.333,42,39.667,42,39z"/>
<path style="fill-rule:evenodd;clip-rule:evenodd;fill:#666666;" d="M45,39c0.667,0,1.333,0,2,0c0,0.667,0,1.333,0,2
	c-0.667,0-1.333,0-2,0C45,40.333,45,39.667,45,39z"/>
<path style="fill-rule:evenodd;clip-rule:evenodd;fill:#666666;" d="M48,39c0.667,0,1.333,0,2,0c0,0.667,0,1.333,0,2
	c-0.667,0-1.333,0-2,0C48,40.333,48,39.667,48,39z"/>
<path style="fill-rule:evenodd;clip-rule:evenodd;fill:#666666;" d="M0,42c0.667,0,1.333,0,2,0c0,0.667,0,1.333,0,2
	c-0.667,0-1.333,0-2,0C0,43.333,0,42.667,0,42z"/>
<path style="fill-rule:evenodd;clip-rule:evenodd;fill:#666666;" d="M3,42c0.667,0,1.333,0,2,0c0,0.667,0,1.333,0,2
	c-0.667,0-1.333,0-2,0C3,43.333,3,42.667,3,42z"/>
<path style="fill-rule:evenodd;clip-rule:evenodd;fill:#666666;" d="M6,42c0.667,0,1.333,0,2,0c0,0.667,0,1.333,0,2
	c-0.667,0-1.333,0-2,0C6,43.333,6,42.667,6,42z"/>
<path style="fill-rule:evenodd;clip-rule:evenodd;fill:#666666;" d="M9,42c0.667,0,1.333,0,2,0c0,0.667,0,1.333,0,2
	c-0.667,0-1.333,0-2,0C9,43.333,9,42.667,9,42z"/>
<path style="fill-rule:evenodd;clip-rule:evenodd;fill:#666666;" d="M12,42c0.667,0,1.333,0,2,0c0,0.667,0,1.333,0,2
	c-0.667,0-1.333,0-2,0C12,43.333,12,42.667,12,42z"/>
<path style="fill-rule:evenodd;clip-rule:evenodd;fill:#666666;" d="M15,42c0.667,0,1.333,0,2,0c0,0.667,0,1.333,0,2
	c-0.667,0-1.333,0-2,0C15,43.333,15,42.667,15,42z"/>
<path style="fill-rule:evenodd;clip-rule:evenodd;fill:#666666;" d="M18,42c0.667,0,1.333,0,2,0c0,0.667,0,1.333,0,2
	c-0.667,0-1.333,0-2,0C18,43.333,18,42.667,18,42z"/>
<path style="fill-rule:evenodd;clip-rule:evenodd;fill:#666666;" d="M21,42c0.667,0,1.333,0,2,0c0,0.667,0,1.333,0,2
	c-0.667,0-1.333,0-2,0C21,43.333,21,42.667,21,42z"/>
<path style="fill-rule:evenodd;clip-rule:evenodd;fill:#666666;" d="M24,42c0.667,0,1.333,0,2,0c0,0.667,0,1.333,0,2
	c-0.667,0-1.333,0-2,0C24,43.333,24,42.667,24,42z"/>
<path style="fill-rule:evenodd;clip-rule:evenodd;fill:#666666;" d="M27,42c0.667,0,1.333,0,2,0c0,0.667,0,1.333,0,2
	c-0.667,0-1.333,0-2,0C27,43.333,27,42.667,27,42z"/>
<path style="fill-rule:evenodd;clip-rule:evenodd;fill:#666666;" d="M30,42c0.667,0,1.333,0,2,0c0,0.667,0,1.333,0,2
	c-0.667,0-1.333,0-2,0C30,43.333,30,42.667,30,42z"/>
<path style="fill-rule:evenodd;clip-rule:evenodd;fill:#666666;" d="M33,42c0.667,0,1.333,0,2,0c0,0.667,0,1.333,0,2
	c-0.667,0-1.333,0-2,0C33,43.333,33,42.667,33,42z"/>
<path style="fill-rule:evenodd;clip-rule:evenodd;fill:#666666;" d="M36,42c0.667,0,1.333,0,2,0c0,0.667,0,1.333,0,2
	c-0.667,0-1.333,0-2,0C36,43.333,36,42.667,36,42z"/>
<path style="fill-rule:evenodd;clip-rule:evenodd;fill:#666666;" d="M39,42c0.667,0,1.333,0,2,0c0,0.667,0,1.333,0,2
	c-0.667,0-1.333,0-2,0C39,43.333,39,42.667,39,42z"/>
<path style="fill-rule:evenodd;clip-rule:evenodd;fill:#666666;" d="M42,42c0.667,0,1.333,0,2,0c0,0.667,0,1.333,0,2
	c-0.667,0-1.333,0-2,0C42,43.333,42,42.667,42,42z"/>
<path style="fill-rule:evenodd;clip-rule:evenodd;fill:#666666;" d="M45,42c0.667,0,1.333,0,2,0c0,0.667,0,1.333,0,2
	c-0.667,0-1.333,0-2,0C45,43.333,45,42.667,45,42z"/>
<path style="fill-rule:evenodd;clip-rule:evenodd;fill:#666666;" d="M48,42c0.667,0,1.333,0,2,0c0,0.667,0,1.333,0,2
	c-0.667,0-1.333,0-2,0C48,43.333,48,42.667,48,42z"/>
<path style="fill-rule:evenodd;clip-rule:evenodd;fill:#666666;" d="M0,45c0.667,0,1.333,0,2,0c0,0.667,0,1.333,0,2
	c-0.667,0-1.333,0-2,0C0,46.333,0,45.667,0,45z"/>
<path style="fill-rule:evenodd;clip-rule:evenodd;fill:#666666;" d="M3,45c0.667,0,1.333,0,2,0c0,0.667,0,1.333,0,2
	c-0.667,0-1.333,0-2,0C3,46.333,3,45.667,3,45z"/>
<path style="fill-rule:evenodd;clip-rule:evenodd;fill:#666666;" d="M6,45c0.667,0,1.333,0,2,0c0,0.667,0,1.333,0,2
	c-0.667,0-1.333,0-2,0C6,46.333,6,45.667,6,45z"/>
<path style="fill-rule:evenodd;clip-rule:evenodd;fill:#666666;" d="M9,45c0.667,0,1.333,0,2,0c0,0.667,0,1.333,0,2
	c-0.667,0-1.333,0-2,0C9,46.333,9,45.667,9,45z"/>
<path style="fill-rule:evenodd;clip-rule:evenodd;fill:#666666;" d="M12,45c0.667,0,1.333,0,2,0c0,0.667,0,1.333,0,2
	c-0.667,0-1.333,0-2,0C12,46.333,12,45.667,12,45z"/>
<path style="fill-rule:evenodd;clip-rule:evenodd;fill:#666666;" d="M15,45c0.667,0,1.333,0,2,0c0,0.667,0,1.333,0,2
	c-0.667,0-1.333,0-2,0C15,46.333,15,45.667,15,45z"/>
<path style="fill-rule:evenodd;clip-rule:evenodd;fill:#666666;" d="M18,45c0.667,0,1.333,0,2,0c0,0.667,0,1.333,0,2
	c-0.667,0-1.333,0-2,0C18,46.333,18,45.667,18,45z"/>
<path style="fill-rule:evenodd;clip-rule:evenodd;fill:#666666;" d="M21,45c0.667,0,1.333,0,2,0c0,0.667,0,1.333,0,2
	c-0.667,0-1.333,0-2,0C21,46.333,21,45.667,21,45z"/>
<path style="fill-rule:evenodd;clip-rule:evenodd;fill:#666666;" d="M24,45c0.667,0,1.333,0,2,0c0,0.667,0,1.333,0,2
	c-0.667,0-1.333,0-2,0C24,46.333,24,45.667,24,45z"/>
<path style="fill-rule:evenodd;clip-rule:evenodd;fill:#666666;" d="M27,45c0.667,0,1.333,0,2,0c0,0.667,0,1.333,0,2
	c-0.667,0-1.333,0-2,0C27,46.333,27,45.667,27,45z"/>
<path style="fill-rule:evenodd;clip-rule:evenodd;fill:#666666;" d="M30,45c0.667,0,1.333,0,2,0c0,0.667,0,1.333,0,2
	c-0.667,0-1.333,0-2,0C30,46.333,30,45.667,30,45z"/>
<path style="fill-rule:evenodd;clip-rule:evenodd;fill:#666666;" d="M33,45c0.667,0,1.333,0,2,0c0,0.667,0,1.333,0,2
	c-0.667,0-1.333,0-2,0C33,46.333,33,45.667,33,45z"/>
<path style="fill-rule:evenodd;clip-rule:evenodd;fill:#666666;" d="M36,45c0.667,0,1.333,0,2,0c0,0.667,0,1.333,0,2
	c-0.667,0-1.333,0-2,0C36,46.333,36,45.667,36,45z"/>
<path style="fill-rule:evenodd;clip-rule:evenodd;fill:#666666;" d="M39,45c0.667,0,1.333,0,2,0c0,0.667,0,1.333,0,2
	c-0.667,0-1.333,0-2,0C39,46.333,39,45.667,39,45z"/>
<path style="fill-rule:evenodd;clip-rule:evenodd;fill:#666666;" d="M42,45c0.667,0,1.333,0,2,0c0,0.667,0,1.333,0,2
	c-0.667,0-1.333,0-2,0C42,46.333,42,45.667,42,45z"/>
<path style="fill-rule:evenodd;clip-rule:evenodd;fill:#666666;" d="M45,45c0.667,0,1.333,0,2,0c0,0.667,0,1.333,0,2
	c-0.667,0-1.333,0-2,0C45,46.333,45,45.667,45,45z"/>
<path style="fill-rule:evenodd;clip-rule:evenodd;fill:#666666;" d="M48,45c0.667,0,1.333,0,2,0c0,0.667,0,1.333,0,2
	c-0.667,0-1.333,0-2,0C48,46.333,48,45.667,48,45z"/>
<path style="fill-rule:evenodd;clip-rule:evenodd;fill:#666666;" d="M3,48c0.667,0,1.333,0,2,0c0,0.667,0,1.333,0,2
	c-0.667,0-1.333,0-2,0C3,49.333,3,48.667,3,48z"/>
<path style="fill-rule:evenodd;clip-rule:evenodd;fill:#666666;" d="M6,48c0.667,0,1.333,0,2,0c0,0.667,0,1.333,0,2
	c-0.667,0-1.333,0-2,0C6,49.333,6,48.667,6,48z"/>
<path style="fill-rule:evenodd;clip-rule:evenodd;fill:#666666;" d="M9,48c0.667,0,1.333,0,2,0c0,0.667,0,1.333,0,2
	c-0.667,0-1.333,0-2,0C9,49.333,9,48.667,9,48z"/>
<path style="fill-rule:evenodd;clip-rule:evenodd;fill:#666666;" d="M12,48c0.667,0,1.333,0,2,0c0,0.667,0,1.333,0,2
	c-0.667,0-1.333,0-2,0C12,49.333,12,48.667,12,48z"/>
<path style="fill-rule:evenodd;clip-rule:evenodd;fill:#666666;" d="M15,48c0.667,0,1.333,0,2,0c0,0.667,0,1.333,0,2
	c-0.667,0-1.333,0-2,0C15,49.333,15,48.667,15,48z"/>
<path style="fill-rule:evenodd;clip-rule:evenodd;fill:#666666;" d="M18,48c0.667,0,1.333,0,2,0c0,0.667,0,1.333,0,2
	c-0.667,0-1.333,0-2,0C18,49.333,18,48.667,18,48z"/>
<path style="fill-rule:evenodd;clip-rule:evenodd;fill:#666666;" d="M21,48c0.667,0,1.333,0,2,0c0,0.667,0,1.333,0,2
	c-0.667,0-1.333,0-2,0C21,49.333,21,48.667,21,48z"/>
<path style="fill-rule:evenodd;clip-rule:evenodd;fill:#666666;" d="M24,48c0.667,0,1.333,0,2,0c0,0.667,0,1.333,0,2
	c-0.667,0-1.333,0-2,0C24,49.333,24,48.667,24,48z"/>
<path style="fill-rule:evenodd;clip-rule:evenodd;fill:#666666;" d="M27,48c0.667,0,1.333,0,2,0c0,0.667,0,1.333,0,2
	c-0.667,0-1.333,0-2,0C27,49.333,27,48.667,27,48z"/>
<path style="fill-rule:evenodd;clip-rule:evenodd;fill:#666666;" d="M30,48c0.667,0,1.333,0,2,0c0,0.667,0,1.333,0,2
	c-0.667,0-1.333,0-2,0C30,49.333,30,48.667,30,48z"/>
<path style="fill-rule:evenodd;clip-rule:evenodd;fill:#666666;" d="M33,48c0.667,0,1.333,0,2,0c0,0.667,0,1.333,0,2
	c-0.667,0-1.333,0-2,0C33,49.333,33,48.667,33,48z"/>
<path style="fill-rule:evenodd;clip-rule:evenodd;fill:#666666;" d="M36,48c0.667,0,1.333,0,2,0c0,0.667,0,1.333,0,2
	c-0.667,0-1.333,0-2,0C36,49.333,36,48.667,36,48z"/>
<path style="fill-rule:evenodd;clip-rule:evenodd;fill:#666666;" d="M39,48c0.667,0,1.333,0,2,0c0,0.667,0,1.333,0,2
	c-0.667,0-1.333,0-2,0C39,49.333,39,48.667,39,48z"/>
<path style="fill-rule:evenodd;clip-rule:evenodd;fill:#666666;" d="M42,48c0.667,0,1.333,0,2,0c0,0.667,0,1.333,0,2
	c-0.667,0-1.333,0-2,0C42,49.333,42,48.667,42,48z"/>
<path style="fill-rule:evenodd;clip-rule:evenodd;fill:#666666;" d="M45,48c0.667,0,1.333,0,2,0c0,0.667,0,1.333,0,2
	c-0.667,0-1.333,0-2,0C45,49.333,45,48.667,45,48z"/>
</svg>
